<svg width="60" height="28" viewBox="0 0 60 28" fill="none" xmlns="http://www.w3.org/2000/svg">
  <g clip-path="url(#clip0_1_116)">
    <path fill-rule="evenodd" clip-rule="evenodd"
      d="M44.1536 0.00796921C48.1356 -0.110031 51.0537 1.09397 53.4128 2.84997C55.5375 4.43197 57.4873 6.90297 58.3098 9.94297C59.423 14.063 58.8498 16.535 57.4199 19.913C56.9222 21.09 55.62 22.648 54.8537 23.417C50.2272 28.057 42.7991 28.923 37.1449 25.269C36.3073 24.728 34.3364 23.109 33.9321 22.463C34.1403 22.041 38.0227 18.284 38.241 18.203C38.6713 18.463 39.2103 19.122 39.6648 19.509C40.1998 19.964 40.6362 20.266 41.3089 20.597C45.5443 22.675 50.6867 20.535 52.1196 16.714C55.2248 8.43697 45.1592 2.55197 39.0454 8.60097L25.5307 22.04C23.7841 23.771 22.2959 25.47 19.3486 26.674C10.372 30.34 0.888589 24.136 0.0700669 15.505C-0.506116 9.44797 2.51055 4.18997 7.67207 1.65397C13.0639 -0.997031 19.5457 0.00996876 23.8454 4.19997L24.6237 4.97697L24.9556 5.30897C26.482 6.82897 29.0572 9.36097 29.4142 9.46397C29.7259 9.27897 34.8995 4.06097 35.536 3.48697C37.4466 1.76297 40.7317 0.108969 44.1536 0.00796921ZM8.83851 8.15497C5.25169 11.091 5.1803 16.738 8.8737 19.813C10.3549 21.046 12.8456 22.003 15.4893 21.471C18.154 20.936 19.2551 19.626 20.6809 18.211C21.2611 17.638 24.7856 14.259 24.9244 13.866C24.666 13.386 21.1194 10.112 20.6457 9.64397C19.1444 8.16497 18.0936 6.97497 15.3877 6.43897C12.7511 5.91597 10.369 6.90197 8.83851 8.15497Z"
      fill="#1253A2" />
  </g>
  <defs>
    <clipPath id="clip0_1_116">
      <rect x="0.111111" width="59.3278" height="28" rx="10" fill="white" />
    </clipPath>
  </defs>
</svg>
