<svg width="59" height="59" viewBox="0 0 59 59" fill="none" xmlns="http://www.w3.org/2000/svg">
  <g clip-path="url(#clip0_1_178)">
    <path fill-rule="evenodd" clip-rule="evenodd"
      d="M8.81947 8.35249C12.3404 7.03827 15.5974 9.58812 15.6971 12.8709C17.5453 12.7295 18.7277 12.5501 20.5928 12.8892C22.7517 13.2816 25.1622 14.4039 26.7587 15.8048C26.9215 15.9476 26.9669 15.9755 27.1101 16.0943C29.972 18.4686 32.0456 22.2927 33.8733 25.4484C35.4818 28.2254 37.5556 32.8641 40.1598 34.6436C41.8882 35.8245 42.6055 35.6589 43.7459 36.2377C48.0249 38.4092 47.9478 43.7277 43.7142 45.2935C42.4587 45.7579 41.2125 46.2096 39.9628 46.6602C37.7183 47.4695 34.5614 48.7081 32.4237 49.3942C32.7041 51.9073 32.5114 53.2726 31.357 55.1324C28.9065 59.0806 23.2817 60.0352 19.4728 56.6082C19.204 56.3665 18.9015 56.0132 18.6614 55.6925L17.965 54.6793C17.4304 54.8147 16.7354 55.1156 16.188 55.3159L7.32212 58.5396C5.96197 59.0459 4.92057 59.3871 3.37577 58.8893C0.621468 58.002 -0.238831 55.2047 0.493482 52.6088C0.669261 51.9856 0.955572 51.4652 1.2662 50.9412L1.45481 50.6256C2.18371 49.4073 2.95006 48.0576 2.70495 45.282C2.47194 42.6433 1.74454 39.7143 1.1027 36.7053L0.956361 36.0096C-0.342232 29.7372 -1.07934 23.1894 3.94081 18.2498C5.25208 16.9595 5.9294 16.7552 6.63965 16.1543C6.51824 15.873 6.25337 15.5393 6.07679 15.1833C5.90584 14.8385 5.78894 14.4872 5.70675 14.0859C5.20637 11.6424 6.58866 9.18513 8.81947 8.35249ZM10.3036 10.7628C8.45273 11.0738 7.92237 13.1052 8.61721 14.1814C9.01702 14.8007 9.6173 14.9588 9.82596 15.8523C10.0463 16.7959 9.54166 17.53 9.02649 17.8976C7.84206 18.7427 6.96159 19.0199 5.74899 20.3147C4.74295 21.389 4.05627 22.2571 3.48108 23.8032C1.29744 29.6725 4.38543 37.4326 5.21545 43.3635C5.78375 47.4245 5.37924 49.6305 3.48395 52.5269C2.81593 53.5478 2.48101 55.9144 4.38506 56.344C5.20682 56.5295 6.00798 56.1261 6.69692 55.8675C12.9348 53.5256 19.313 51.33 25.5993 48.9912C31.1912 46.9108 36.7853 44.9252 42.3869 42.8792C43.2207 42.5747 43.6529 42.3695 44.0116 41.6871C44.4848 40.7871 44.0916 40.1225 43.6277 39.555C42.6594 38.3706 41.3205 38.4246 39.8115 37.6121C37.0329 36.1159 35.9245 34.3875 34.2667 31.708C32.001 28.0462 29.1564 21.6553 25.865 18.6801C25.7149 18.5444 25.6818 18.4944 25.5144 18.3293C25.3744 18.1913 25.2387 18.1078 25.0926 17.9816C20.1622 13.7249 15.5778 16.3204 13.9439 15.5069C12.0475 14.5627 13.6655 12.8733 12.3768 11.4434C11.9905 11.0147 11.1588 10.6191 10.3036 10.7628ZM29.8214 50.371L20.6029 53.7067C21.5468 55.4779 24.3203 56.5576 26.5872 55.6752C28.5359 54.9166 30.0145 53.1351 29.8214 50.371Z"
      fill="black" />
    <path fill-rule="evenodd" clip-rule="evenodd"
      d="M34.9807 0.029123C34.3665 0.0611597 33.8408 0.102125 33.4859 0.418521C33.1888 0.683476 32.9272 1.28194 33.1197 1.85348C33.5268 3.06205 34.7727 2.72095 36.0676 2.73425C42.4792 2.7999 47.8492 5.74815 51.4859 10.2268C56.0143 15.8036 57.2342 23.9574 54.1134 30.8351C53.9027 31.2992 53.5861 31.7156 53.7343 32.3479C53.8436 32.8145 54.1993 33.2046 54.665 33.3352C55.9366 33.6917 56.3386 32.5578 56.7038 31.6962C59.6971 24.6346 59.0661 16.7257 54.9803 10.444C54.4397 9.61281 53.9549 8.95907 53.3969 8.25069L51.5549 6.2569C47.273 2.28827 41.4067 -0.306463 34.9807 0.029123Z"
      fill="#1253A2" />
    <path fill-rule="evenodd" clip-rule="evenodd"
      d="M35.1801 7.13293C34.7477 7.15681 34.4347 7.15809 34.1242 7.39184C33.1119 8.154 33.5557 9.62084 34.6085 9.83502C35.5941 10.0356 36.7555 9.57444 39.4199 10.3329C44.8018 11.8649 48.569 16.7077 48.7371 22.2538C48.7861 23.8678 48.5298 25.4801 48.0451 26.8761C47.8827 27.3437 47.358 28.4022 47.3237 28.7814C47.2528 29.5658 47.8273 30.21 48.5387 30.2682C49.446 30.3424 49.7724 29.7642 50.064 29.1509C52.3031 24.4432 51.7378 18.5775 49.067 14.3728C46.147 9.77572 40.9152 6.81638 35.1801 7.13293Z"
      fill="#1253A2" />
    <path fill-rule="evenodd" clip-rule="evenodd"
      d="M34.9995 14.3117C34.3121 14.5289 33.7657 15.2858 34.1585 16.1682C34.5593 17.0686 35.3253 16.8765 36.3729 16.9644C40.3603 17.2989 42.6219 21.4246 41.2323 24.7968C41.0561 25.2242 40.8539 25.4783 40.9349 26.0202C41.0438 26.7493 41.8216 27.3549 42.6926 27.0902C44.2638 26.6129 45.2786 21.6514 43.0449 18.1574C42.3298 17.0389 41.2336 15.907 39.942 15.2475C38.8871 14.7089 36.435 13.858 34.9995 14.3117Z"
      fill="#1253A2" />
  </g>
  <defs>
    <clipPath id="clip0_1_178">
      <rect width="59" height="59" fill="white" />
    </clipPath>
  </defs>
</svg>
